<svg width="1767" height="1749" viewBox="0 0 1767 1749" fill="none" xmlns="http://www.w3.org/2000/svg">
<path d="M269.927 1201.97L874.311 1416.96C937.049 1439.27 1006 1406.51 1028.32 1343.77L1243.31 739.385C1265.62 676.647 1232.85 607.697 1170.12 585.38L565.733 370.391C502.995 348.074 434.044 380.842 411.727 443.58L196.738 1047.96C174.421 1110.7 207.189 1179.65 269.927 1201.97Z" fill="url(#paint0_linear_320_11083)"/>
<path d="M1032.91 1197.53L1336.36 773.381C1367.86 729.35 1357.7 668.119 1313.67 636.617L889.522 333.166C845.491 301.665 784.26 311.822 752.758 355.853L449.307 780.002C417.806 824.033 427.963 885.264 471.994 916.766L896.143 1220.22C940.174 1251.72 1001.41 1241.56 1032.91 1197.53Z" fill="url(#paint1_linear_320_11083)"/>
<path d="M1069.26 1084.27L1401.47 820.788C1435.96 793.438 1441.74 743.311 1414.39 708.827L1150.9 376.616C1123.55 342.131 1073.43 336.348 1038.94 363.698L706.732 627.183C672.248 654.533 666.465 704.66 693.815 739.144L957.299 1071.36C984.65 1105.84 1034.78 1111.62 1069.26 1084.27Z" fill="url(#paint2_linear_320_11083)"/>
<path d="M1123.06 1003.91L1441.73 872.443C1474.81 858.796 1490.56 820.915 1476.92 787.835L1345.45 469.166C1331.8 436.086 1293.92 420.332 1260.84 433.98L942.172 565.447C909.092 579.095 893.338 616.975 906.986 650.055L1038.45 968.724C1052.1 1001.8 1089.98 1017.56 1123.06 1003.91Z" fill="url(#paint3_linear_320_11083)"/>
<path d="M1183.12 953.159L1461.62 921.828C1490.53 918.575 1511.33 892.503 1508.08 863.594L1476.75 585.088C1473.5 556.178 1447.42 535.379 1418.51 538.631L1140.01 569.963C1111.1 573.215 1090.3 599.288 1093.55 628.197L1124.88 906.703C1128.14 935.612 1154.21 956.412 1183.12 953.159Z" fill="url(#paint4_linear_320_11083)"/>
<path d="M1241.42 926.952L1466.1 964.878C1489.42 968.815 1511.52 953.101 1515.46 929.779L1553.38 705.096C1557.32 681.775 1541.61 659.678 1518.29 655.741L1293.6 617.814C1270.28 613.877 1248.18 629.592 1244.25 652.913L1206.32 877.596C1202.38 900.918 1218.1 923.015 1241.42 926.952Z" fill="url(#paint5_linear_320_11083)"/>
<path d="M1292.86 919.539L1459.95 999.529C1477.3 1007.83 1498.09 1000.5 1506.39 983.159L1586.38 816.065C1594.68 798.721 1587.35 777.93 1570.01 769.627L1402.92 689.637C1385.57 681.334 1364.78 688.663 1356.48 706.007L1276.49 873.101C1268.18 890.445 1275.51 911.236 1292.86 919.539Z" fill="url(#paint6_linear_320_11083)"/>
<path d="M1487.34 1022.84L1587.3 910.179C1597.68 898.486 1596.61 880.597 1584.92 870.222L1472.25 770.262C1460.56 759.888 1442.67 760.956 1432.3 772.649L1332.34 885.311C1321.96 897.004 1323.03 914.894 1334.72 925.268L1447.39 1025.23C1459.08 1035.6 1476.97 1034.53 1487.34 1022.84Z" fill="url(#paint7_linear_320_11083)"/>
<path d="M1463.57 1049.58L1566.92 983.943C1577.65 977.128 1580.83 962.903 1574.01 952.172L1508.37 848.817C1501.56 838.086 1487.33 834.911 1476.6 841.726L1373.25 907.365C1362.52 914.18 1359.34 928.404 1366.16 939.136L1431.79 1042.49C1438.61 1053.22 1452.83 1056.4 1463.57 1049.58Z" fill="url(#paint8_linear_320_11083)"/>
<path d="M1438.99 1065.16L1534.47 1037.02C1544.39 1034.1 1550.05 1023.7 1547.13 1013.78L1519 918.298C1516.07 908.385 1505.67 902.716 1495.76 905.637L1400.27 933.774C1390.36 936.695 1384.69 947.1 1387.61 957.014L1415.75 1052.5C1418.67 1062.41 1429.07 1068.08 1438.99 1065.16Z" fill="url(#paint9_linear_320_11083)"/>
<path d="M1416.29 1071.83L1497.22 1071.24C1505.62 1071.18 1512.38 1064.32 1512.32 1055.92L1511.73 974.984C1511.67 966.583 1504.81 959.822 1496.41 959.884L1415.47 960.475C1407.07 960.536 1400.31 967.397 1400.37 975.797L1400.96 1056.73C1401.03 1065.13 1407.89 1071.89 1416.29 1071.83Z" fill="url(#paint10_linear_320_11083)"/>
<path d="M1397.05 1071.95L1460.44 1089.62C1467.02 1091.46 1473.84 1087.61 1475.67 1081.04L1493.35 1017.65C1495.18 1011.07 1491.34 1004.25 1484.76 1002.42L1421.37 984.742C1414.79 982.907 1407.98 986.753 1406.14 993.33L1388.47 1056.72C1386.63 1063.29 1390.48 1070.11 1397.05 1071.95Z" fill="url(#paint11_linear_320_11083)"/>
<path d="M1382 1067.73L1427.58 1095.75C1432.3 1098.65 1438.5 1097.18 1441.4 1092.45L1469.42 1046.87C1472.33 1042.14 1470.85 1035.95 1466.12 1033.04L1420.55 1005.03C1415.82 1002.12 1409.63 1003.59 1406.72 1008.32L1378.7 1053.9C1375.79 1058.63 1377.27 1064.82 1382 1067.73Z" fill="url(#paint12_linear_320_11083)"/>
<defs>
<linearGradient id="paint0_linear_320_11083" x1="1171.98" y1="1326.25" x2="112.24" y2="307.416" gradientUnits="userSpaceOnUse">
<stop stop-color="#007EF9" stop-opacity="0.5"/>
<stop offset="0.17" stop-color="#007EF9"/>
<stop offset="0.21" stop-color="#018CF7"/>
<stop offset="0.3" stop-color="#04AAF4"/>
<stop offset="0.37" stop-color="#06BCF2"/>
<stop offset="0.42" stop-color="#07C3F2"/>
<stop offset="0.47" stop-color="#0CC4EE"/>
<stop offset="0.51" stop-color="#1CC7E4" stop-opacity="0.98"/>
<stop offset="0.55" stop-color="#36CCD2" stop-opacity="0.96"/>
<stop offset="0.6" stop-color="#5BD4BA" stop-opacity="0.93"/>
<stop offset="0.65" stop-color="#8ADE9B" stop-opacity="0.89"/>
<stop offset="0.69" stop-color="#C3EA76" stop-opacity="0.85"/>
<stop offset="0.73" stop-color="#FEF750" stop-opacity="0.8"/>
<stop offset="1" stop-color="#FEF750" stop-opacity="0.6"/>
</linearGradient>
<linearGradient id="paint1_linear_320_11083" x1="1146.03" y1="1215.66" x2="546.02" y2="181.722" gradientUnits="userSpaceOnUse">
<stop stop-color="#007EF9" stop-opacity="0.5"/>
<stop offset="0.17" stop-color="#007EF9"/>
<stop offset="0.21" stop-color="#018CF7"/>
<stop offset="0.3" stop-color="#04AAF4"/>
<stop offset="0.37" stop-color="#06BCF2"/>
<stop offset="0.42" stop-color="#07C3F2"/>
<stop offset="0.47" stop-color="#0CC4EE"/>
<stop offset="0.51" stop-color="#1CC7E4" stop-opacity="0.98"/>
<stop offset="0.55" stop-color="#36CCD2" stop-opacity="0.96"/>
<stop offset="0.6" stop-color="#5BD4BA" stop-opacity="0.93"/>
<stop offset="0.65" stop-color="#8ADE9B" stop-opacity="0.89"/>
<stop offset="0.69" stop-color="#C3EA76" stop-opacity="0.85"/>
<stop offset="0.73" stop-color="#FEF750" stop-opacity="0.8"/>
<stop offset="1" stop-color="#FEF750" stop-opacity="0.6"/>
</linearGradient>
<linearGradient id="paint2_linear_320_11083" x1="1148.97" y1="1121.96" x2="911.656" y2="179.087" gradientUnits="userSpaceOnUse">
<stop stop-color="#007EF9" stop-opacity="0.5"/>
<stop offset="0.17" stop-color="#007EF9"/>
<stop offset="0.21" stop-color="#018CF7"/>
<stop offset="0.3" stop-color="#04AAF4"/>
<stop offset="0.37" stop-color="#06BCF2"/>
<stop offset="0.42" stop-color="#07C3F2"/>
<stop offset="0.47" stop-color="#0CC4EE"/>
<stop offset="0.51" stop-color="#1CC7E4" stop-opacity="0.98"/>
<stop offset="0.55" stop-color="#36CCD2" stop-opacity="0.96"/>
<stop offset="0.6" stop-color="#5BD4BA" stop-opacity="0.93"/>
<stop offset="0.65" stop-color="#8ADE9B" stop-opacity="0.89"/>
<stop offset="0.69" stop-color="#C3EA76" stop-opacity="0.85"/>
<stop offset="0.73" stop-color="#FEF750" stop-opacity="0.8"/>
<stop offset="1" stop-color="#FEF750" stop-opacity="0.6"/>
</linearGradient>
<linearGradient id="paint3_linear_320_11083" x1="1185.99" y1="1058.05" x2="1211.79" y2="268.884" gradientUnits="userSpaceOnUse">
<stop stop-color="#007EF9" stop-opacity="0.5"/>
<stop offset="0.17" stop-color="#007EF9"/>
<stop offset="0.21" stop-color="#018CF7"/>
<stop offset="0.3" stop-color="#04AAF4"/>
<stop offset="0.37" stop-color="#06BCF2"/>
<stop offset="0.42" stop-color="#07C3F2"/>
<stop offset="0.47" stop-color="#0CC4EE"/>
<stop offset="0.51" stop-color="#1CC7E4" stop-opacity="0.98"/>
<stop offset="0.55" stop-color="#36CCD2" stop-opacity="0.96"/>
<stop offset="0.6" stop-color="#5BD4BA" stop-opacity="0.93"/>
<stop offset="0.65" stop-color="#8ADE9B" stop-opacity="0.89"/>
<stop offset="0.69" stop-color="#C3EA76" stop-opacity="0.85"/>
<stop offset="0.73" stop-color="#FEF750" stop-opacity="0.8"/>
<stop offset="1" stop-color="#FEF750" stop-opacity="0.6"/>
</linearGradient>
<linearGradient id="paint4_linear_320_11083" x1="1215.9" y1="1004.22" x2="1413.08" y2="392.759" gradientUnits="userSpaceOnUse">
<stop stop-color="#007EF9" stop-opacity="0.5"/>
<stop offset="0.17" stop-color="#007EF9"/>
<stop offset="0.21" stop-color="#018CF7"/>
<stop offset="0.3" stop-color="#04AAF4"/>
<stop offset="0.37" stop-color="#06BCF2"/>
<stop offset="0.42" stop-color="#07C3F2"/>
<stop offset="0.47" stop-color="#0CC4EE"/>
<stop offset="0.51" stop-color="#1CC7E4" stop-opacity="0.98"/>
<stop offset="0.55" stop-color="#36CCD2" stop-opacity="0.96"/>
<stop offset="0.6" stop-color="#5BD4BA" stop-opacity="0.93"/>
<stop offset="0.65" stop-color="#8ADE9B" stop-opacity="0.89"/>
<stop offset="0.69" stop-color="#C3EA76" stop-opacity="0.85"/>
<stop offset="0.73" stop-color="#FEF750" stop-opacity="0.8"/>
<stop offset="1" stop-color="#FEF750" stop-opacity="0.6"/>
</linearGradient>
<linearGradient id="paint5_linear_320_11083" x1="1255.65" y1="974.476" x2="1546.76" y2="540.814" gradientUnits="userSpaceOnUse">
<stop stop-color="#007EF9" stop-opacity="0.5"/>
<stop offset="0.17" stop-color="#007EF9"/>
<stop offset="0.21" stop-color="#018CF7"/>
<stop offset="0.3" stop-color="#04AAF4"/>
<stop offset="0.37" stop-color="#06BCF2"/>
<stop offset="0.42" stop-color="#07C3F2"/>
<stop offset="0.47" stop-color="#0CC4EE"/>
<stop offset="0.51" stop-color="#1CC7E4" stop-opacity="0.98"/>
<stop offset="0.55" stop-color="#36CCD2" stop-opacity="0.96"/>
<stop offset="0.6" stop-color="#5BD4BA" stop-opacity="0.93"/>
<stop offset="0.65" stop-color="#8ADE9B" stop-opacity="0.89"/>
<stop offset="0.69" stop-color="#C3EA76" stop-opacity="0.85"/>
<stop offset="0.73" stop-color="#FEF750" stop-opacity="0.8"/>
<stop offset="1" stop-color="#FEF750" stop-opacity="0.6"/>
</linearGradient>
<linearGradient id="paint6_linear_320_11083" x1="1294.82" y1="965.364" x2="1619.19" y2="691.957" gradientUnits="userSpaceOnUse">
<stop stop-color="#007EF9" stop-opacity="0.5"/>
<stop offset="0.17" stop-color="#007EF9"/>
<stop offset="0.21" stop-color="#018CF7"/>
<stop offset="0.3" stop-color="#04AAF4"/>
<stop offset="0.37" stop-color="#06BCF2"/>
<stop offset="0.42" stop-color="#07C3F2"/>
<stop offset="0.47" stop-color="#0CC4EE"/>
<stop offset="0.51" stop-color="#1CC7E4" stop-opacity="0.98"/>
<stop offset="0.55" stop-color="#36CCD2" stop-opacity="0.96"/>
<stop offset="0.6" stop-color="#5BD4BA" stop-opacity="0.93"/>
<stop offset="0.65" stop-color="#8ADE9B" stop-opacity="0.89"/>
<stop offset="0.69" stop-color="#C3EA76" stop-opacity="0.85"/>
<stop offset="0.73" stop-color="#FEF750" stop-opacity="0.8"/>
<stop offset="1" stop-color="#FEF750" stop-opacity="0.6"/>
</linearGradient>
<linearGradient id="paint7_linear_320_11083" x1="1325.33" y1="949.993" x2="1640.87" y2="808.661" gradientUnits="userSpaceOnUse">
<stop stop-color="#007EF9" stop-opacity="0.5"/>
<stop offset="0.17" stop-color="#007EF9"/>
<stop offset="0.21" stop-color="#018CF7"/>
<stop offset="0.3" stop-color="#04AAF4"/>
<stop offset="0.37" stop-color="#06BCF2"/>
<stop offset="0.42" stop-color="#07C3F2"/>
<stop offset="0.47" stop-color="#0CC4EE"/>
<stop offset="0.51" stop-color="#1CC7E4" stop-opacity="0.98"/>
<stop offset="0.55" stop-color="#36CCD2" stop-opacity="0.96"/>
<stop offset="0.6" stop-color="#5BD4BA" stop-opacity="0.93"/>
<stop offset="0.65" stop-color="#8ADE9B" stop-opacity="0.89"/>
<stop offset="0.69" stop-color="#C3EA76" stop-opacity="0.85"/>
<stop offset="0.73" stop-color="#FEF750" stop-opacity="0.8"/>
<stop offset="1" stop-color="#FEF750" stop-opacity="0.6"/>
</linearGradient>
<linearGradient id="paint8_linear_320_11083" x1="1352.22" y1="960.733" x2="1630.17" y2="921.039" gradientUnits="userSpaceOnUse">
<stop stop-color="#007EF9" stop-opacity="0.5"/>
<stop offset="0.17" stop-color="#007EF9"/>
<stop offset="0.21" stop-color="#018CF7"/>
<stop offset="0.3" stop-color="#04AAF4"/>
<stop offset="0.37" stop-color="#06BCF2"/>
<stop offset="0.42" stop-color="#07C3F2"/>
<stop offset="0.47" stop-color="#0CC4EE"/>
<stop offset="0.51" stop-color="#1CC7E4" stop-opacity="0.98"/>
<stop offset="0.55" stop-color="#36CCD2" stop-opacity="0.96"/>
<stop offset="0.6" stop-color="#5BD4BA" stop-opacity="0.93"/>
<stop offset="0.65" stop-color="#8ADE9B" stop-opacity="0.89"/>
<stop offset="0.69" stop-color="#C3EA76" stop-opacity="0.85"/>
<stop offset="0.73" stop-color="#FEF750" stop-opacity="0.8"/>
<stop offset="1" stop-color="#FEF750" stop-opacity="0.6"/>
</linearGradient>
<linearGradient id="paint9_linear_320_11083" x1="1371.06" y1="973.356" x2="1596.96" y2="1004.59" gradientUnits="userSpaceOnUse">
<stop stop-color="#007EF9" stop-opacity="0.5"/>
<stop offset="0.17" stop-color="#007EF9"/>
<stop offset="0.21" stop-color="#018CF7"/>
<stop offset="0.3" stop-color="#04AAF4"/>
<stop offset="0.37" stop-color="#06BCF2"/>
<stop offset="0.42" stop-color="#07C3F2"/>
<stop offset="0.47" stop-color="#0CC4EE"/>
<stop offset="0.51" stop-color="#1CC7E4" stop-opacity="0.98"/>
<stop offset="0.55" stop-color="#36CCD2" stop-opacity="0.96"/>
<stop offset="0.6" stop-color="#5BD4BA" stop-opacity="0.93"/>
<stop offset="0.65" stop-color="#8ADE9B" stop-opacity="0.89"/>
<stop offset="0.69" stop-color="#C3EA76" stop-opacity="0.85"/>
<stop offset="0.73" stop-color="#FEF750" stop-opacity="0.8"/>
<stop offset="1" stop-color="#FEF750" stop-opacity="0.6"/>
</linearGradient>
<linearGradient id="paint10_linear_320_11083" x1="1382.97" y1="987.492" x2="1552.27" y2="1062.42" gradientUnits="userSpaceOnUse">
<stop stop-color="#007EF9" stop-opacity="0.5"/>
<stop offset="0.17" stop-color="#007EF9"/>
<stop offset="0.21" stop-color="#018CF7"/>
<stop offset="0.3" stop-color="#04AAF4"/>
<stop offset="0.37" stop-color="#06BCF2"/>
<stop offset="0.42" stop-color="#07C3F2"/>
<stop offset="0.47" stop-color="#0CC4EE"/>
<stop offset="0.51" stop-color="#1CC7E4" stop-opacity="0.98"/>
<stop offset="0.55" stop-color="#36CCD2" stop-opacity="0.96"/>
<stop offset="0.6" stop-color="#5BD4BA" stop-opacity="0.93"/>
<stop offset="0.65" stop-color="#8ADE9B" stop-opacity="0.89"/>
<stop offset="0.69" stop-color="#C3EA76" stop-opacity="0.85"/>
<stop offset="0.73" stop-color="#FEF750" stop-opacity="0.8"/>
<stop offset="1" stop-color="#FEF750" stop-opacity="0.6"/>
</linearGradient>
<linearGradient id="paint11_linear_320_11083" x1="1391.74" y1="996.102" x2="1507.48" y2="1092.78" gradientUnits="userSpaceOnUse">
<stop stop-color="#007EF9" stop-opacity="0.5"/>
<stop offset="0.17" stop-color="#007EF9"/>
<stop offset="0.21" stop-color="#018CF7"/>
<stop offset="0.3" stop-color="#04AAF4"/>
<stop offset="0.37" stop-color="#06BCF2"/>
<stop offset="0.42" stop-color="#07C3F2"/>
<stop offset="0.47" stop-color="#0CC4EE"/>
<stop offset="0.51" stop-color="#1CC7E4" stop-opacity="0.98"/>
<stop offset="0.55" stop-color="#36CCD2" stop-opacity="0.96"/>
<stop offset="0.6" stop-color="#5BD4BA" stop-opacity="0.93"/>
<stop offset="0.65" stop-color="#8ADE9B" stop-opacity="0.89"/>
<stop offset="0.69" stop-color="#C3EA76" stop-opacity="0.85"/>
<stop offset="0.73" stop-color="#FEF750" stop-opacity="0.8"/>
<stop offset="1" stop-color="#FEF750" stop-opacity="0.6"/>
</linearGradient>
<linearGradient id="paint12_linear_320_11083" x1="1394.84" y1="1007.27" x2="1463.63" y2="1108.77" gradientUnits="userSpaceOnUse">
<stop stop-color="#007EF9" stop-opacity="0.5"/>
<stop offset="0.17" stop-color="#007EF9"/>
<stop offset="0.21" stop-color="#018CF7"/>
<stop offset="0.3" stop-color="#04AAF4"/>
<stop offset="0.37" stop-color="#06BCF2"/>
<stop offset="0.42" stop-color="#07C3F2"/>
<stop offset="0.47" stop-color="#0CC4EE"/>
<stop offset="0.51" stop-color="#1CC7E4" stop-opacity="0.98"/>
<stop offset="0.55" stop-color="#36CCD2" stop-opacity="0.96"/>
<stop offset="0.6" stop-color="#5BD4BA" stop-opacity="0.93"/>
<stop offset="0.65" stop-color="#8ADE9B" stop-opacity="0.89"/>
<stop offset="0.69" stop-color="#C3EA76" stop-opacity="0.85"/>
<stop offset="0.73" stop-color="#FEF750" stop-opacity="0.8"/>
<stop offset="1" stop-color="#FEF750" stop-opacity="0.6"/>
</linearGradient>
</defs>
</svg>
