<svg width="1717" height="1798" viewBox="0 0 1717 1798" fill="none" xmlns="http://www.w3.org/2000/svg">
<path d="M1450.69 1238.61L708.389 1355.94C583.372 1375.7 466.008 1290.37 446.249 1165.35L328.927 423.047C309.168 298.03 394.496 180.666 519.513 160.906L1261.82 43.5843C1386.83 23.8252 1504.2 109.154 1523.96 234.171L1641.28 976.474C1661.04 1101.49 1575.71 1218.86 1450.69 1238.61Z" fill="url(#paint0_linear_320_11068)"/>
<path d="M1336.01 1124.84L768.772 1426.21C673.241 1476.97 554.652 1440.67 503.898 1345.14L202.528 777.899C151.773 682.369 188.071 563.78 283.602 513.025L850.84 211.656C946.371 160.901 1064.96 197.2 1115.71 292.731L1417.08 859.969C1467.84 955.5 1431.54 1074.09 1336.01 1124.84Z" fill="url(#paint1_linear_320_11068)"/>
<path d="M1208.19 1057.01L833.647 1458.39C770.567 1525.99 664.63 1529.66 597.03 1466.58L195.643 1092.04C128.043 1028.96 124.378 923.019 187.457 855.418L562 454.032C625.08 386.431 731.017 382.766 798.617 445.846L1200 820.389C1267.6 883.468 1271.27 989.405 1208.19 1057.01Z" fill="url(#paint2_linear_320_11068)"/>
<path d="M1086.02 1037.75L895.028 1466.35C862.863 1538.53 778.273 1570.97 706.092 1538.81L277.487 1347.81C205.306 1315.65 172.866 1231.06 205.032 1158.88L396.026 730.271C428.191 658.09 512.78 625.651 584.961 657.816L1013.57 848.811C1085.75 880.976 1118.19 965.565 1086.02 1037.75Z" fill="url(#paint3_linear_320_11068)"/>
<path d="M981.934 1056.19L946.852 1455.69C940.943 1522.97 881.607 1572.73 814.321 1566.82L414.82 1531.74C347.535 1525.83 297.778 1466.49 303.687 1399.21L338.77 999.707C344.679 932.421 404.015 882.665 471.301 888.574L870.801 923.657C938.087 929.565 987.843 988.902 981.934 1056.19Z" fill="url(#paint4_linear_320_11068)"/>
<path d="M902.949 1100.05L985.767 1432.67C999.715 1488.69 965.609 1545.41 909.591 1559.35L576.968 1642.17C520.95 1656.12 464.231 1622.01 450.283 1566L367.466 1233.37C353.518 1177.35 387.623 1120.64 443.641 1106.69L776.265 1023.87C832.283 1009.92 889.002 1044.03 902.949 1100.05Z" fill="url(#paint5_linear_320_11068)"/>
<path d="M851.315 1157.47L1010.8 1403.23C1037.66 1444.62 1025.88 1499.94 984.491 1526.8L738.731 1686.29C697.341 1713.15 642.015 1701.37 615.156 1659.98L455.671 1414.22C428.811 1372.83 440.59 1317.5 481.979 1290.64L727.739 1131.16C769.129 1104.3 824.456 1116.08 851.315 1157.47Z" fill="url(#paint6_linear_320_11068)"/>
<path d="M825.563 1218.23L1022.84 1372.47C1056.06 1398.44 1061.94 1446.43 1035.97 1479.65L881.732 1676.93C855.759 1710.15 807.773 1716.03 774.551 1690.05L577.273 1535.82C544.051 1509.85 538.175 1461.86 564.148 1428.64L718.382 1231.36C744.355 1198.14 792.341 1192.26 825.563 1218.23Z" fill="url(#paint7_linear_320_11068)"/>
<path d="M821.686 1274.52L1024.03 1344.26C1058.1 1356.01 1076.2 1393.15 1064.46 1427.23L994.712 1629.57C982.966 1663.64 945.822 1681.74 911.747 1670L709.408 1600.25C675.333 1588.51 657.231 1551.36 668.976 1517.29L738.721 1314.95C750.466 1280.88 787.611 1262.77 821.686 1274.52Z" fill="url(#paint8_linear_320_11068)"/>
<path d="M834.187 1321.08L1017.12 1321.14C1047.92 1321.15 1072.89 1346.13 1072.88 1376.94L1072.82 1559.87C1072.81 1590.68 1047.83 1615.64 1017.02 1615.63L834.091 1615.57C803.286 1615.56 778.321 1590.58 778.331 1559.77L778.391 1376.84C778.401 1346.04 803.381 1321.07 834.187 1321.08Z" fill="url(#paint9_linear_320_11068)"/>
<path d="M857.266 1355.23L1005.11 1304.38C1030.01 1295.82 1057.14 1309.06 1065.7 1333.95L1116.55 1481.8C1125.12 1506.7 1111.87 1533.82 1086.98 1542.39L939.133 1593.24C914.235 1601.8 887.108 1588.56 878.544 1563.67L827.691 1415.82C819.127 1390.92 832.369 1363.8 857.266 1355.23Z" fill="url(#paint10_linear_320_11068)"/>
<path d="M885.417 1376.4L990.738 1294.17C1008.48 1280.32 1034.09 1283.48 1047.94 1301.22L1130.17 1406.54C1144.02 1424.28 1140.87 1449.89 1123.13 1463.74L1017.81 1545.97C1000.07 1559.82 974.456 1556.67 960.606 1538.93L878.376 1433.61C864.525 1415.87 867.677 1390.26 885.417 1376.4Z" fill="url(#paint11_linear_320_11068)"/>
<path d="M914.044 1385.69L976.286 1289.91C986.766 1273.79 1008.34 1269.21 1024.46 1279.69L1120.23 1341.93C1136.36 1352.41 1140.93 1373.98 1130.45 1390.1L1068.21 1485.88C1057.73 1502.01 1036.16 1506.58 1020.04 1496.1L924.268 1433.87C908.141 1423.39 903.563 1401.82 914.044 1385.69Z" fill="url(#paint12_linear_320_11068)"/>
<path d="M939.771 1385.21L963.419 1290.5C967.401 1274.55 983.558 1264.85 999.507 1268.83L1094.22 1292.48C1110.17 1296.46 1119.87 1312.62 1115.89 1328.57L1092.24 1423.28C1088.26 1439.23 1072.1 1448.93 1056.15 1444.95L961.439 1421.3C945.49 1417.32 935.789 1401.16 939.771 1385.21Z" fill="url(#paint13_linear_320_11068)"/>
<defs>
<linearGradient id="paint0_linear_320_11068" x1="1351.02" y1="1999.74" x2="918.96" y2="100.003" gradientUnits="userSpaceOnUse">
<stop offset="0.0520833" stop-color="#FBFE50"/>
<stop offset="0.723958" stop-color="#00D1FF" stop-opacity="0.9"/>
<stop offset="1" stop-color="#129CFF" stop-opacity="0.7"/>
</linearGradient>
<linearGradient id="paint1_linear_320_11068" x1="1165.15" y1="1525.59" x2="589.463" y2="352.655" gradientUnits="userSpaceOnUse">
<stop offset="0.0520833" stop-color="#FBFE50"/>
<stop offset="0.278655" stop-color="#4CDFCA" stop-opacity="0.930139"/>
<stop offset="0.376401" stop-color="#00D1FF" stop-opacity="0.9"/>
<stop offset="1" stop-color="#129CFF" stop-opacity="0.7"/>
</linearGradient>
<linearGradient id="paint2_linear_320_11068" x1="1361.34" y1="1456.29" x2="390.008" y2="640.708" gradientUnits="userSpaceOnUse">
<stop offset="0.0520833" stop-color="#FBFE50"/>
<stop offset="0.723958" stop-color="#00D1FF" stop-opacity="0.9"/>
<stop offset="1" stop-color="#129CFF" stop-opacity="0.7"/>
</linearGradient>
<linearGradient id="paint3_linear_320_11068" x1="1127.55" y1="1301.51" x2="308.976" y2="928.995" gradientUnits="userSpaceOnUse">
<stop offset="0.0520833" stop-color="#FBFE50"/>
<stop offset="0.723958" stop-color="#00D1FF" stop-opacity="0.9"/>
<stop offset="1" stop-color="#129CFF" stop-opacity="0.7"/>
</linearGradient>
<linearGradient id="paint4_linear_320_11068" x1="1019.34" y1="1246.2" x2="323.72" y2="1184.52" gradientUnits="userSpaceOnUse">
<stop offset="0.0520833" stop-color="#FBFE50"/>
<stop offset="0.723958" stop-color="#00D1FF" stop-opacity="0.9"/>
<stop offset="1" stop-color="#129CFF" stop-opacity="0.7"/>
</linearGradient>
<linearGradient id="paint5_linear_320_11068" x1="948.037" y1="1250.02" x2="406.731" y2="1386.92" gradientUnits="userSpaceOnUse">
<stop offset="0.0520833" stop-color="#FBFE50"/>
<stop offset="0.723958" stop-color="#00D1FF" stop-opacity="0.9"/>
<stop offset="1" stop-color="#129CFF" stop-opacity="0.7"/>
</linearGradient>
<linearGradient id="paint6_linear_320_11068" x1="929.485" y1="1266.12" x2="530.128" y2="1527.38" gradientUnits="userSpaceOnUse">
<stop offset="0.0520833" stop-color="#FBFE50"/>
<stop offset="0.723958" stop-color="#00D1FF" stop-opacity="0.9"/>
<stop offset="1" stop-color="#129CFF" stop-opacity="0.7"/>
</linearGradient>
<linearGradient id="paint7_linear_320_11068" x1="918.973" y1="1284.29" x2="668.936" y2="1606.55" gradientUnits="userSpaceOnUse">
<stop offset="0.0520833" stop-color="#FBFE50"/>
<stop offset="0.723958" stop-color="#00D1FF" stop-opacity="0.9"/>
<stop offset="1" stop-color="#129CFF" stop-opacity="0.7"/>
</linearGradient>
<linearGradient id="paint8_linear_320_11068" x1="915.553" y1="1301.91" x2="803.163" y2="1631.91" gradientUnits="userSpaceOnUse">
<stop offset="0.0520833" stop-color="#FBFE50"/>
<stop offset="0.723958" stop-color="#00D1FF" stop-opacity="0.9"/>
<stop offset="1" stop-color="#129CFF" stop-opacity="0.7"/>
</linearGradient>
<linearGradient id="paint9_linear_320_11068" x1="917.669" y1="1317.1" x2="918.669" y2="1615.06" gradientUnits="userSpaceOnUse">
<stop offset="0.0520833" stop-color="#FBFE50"/>
<stop offset="0.723958" stop-color="#00D1FF" stop-opacity="0.9"/>
<stop offset="1" stop-color="#129CFF" stop-opacity="0.7"/>
</linearGradient>
<linearGradient id="paint10_linear_320_11068" x1="923.62" y1="1328.78" x2="1007.34" y2="1569.3" gradientUnits="userSpaceOnUse">
<stop offset="0.0520833" stop-color="#FBFE50"/>
<stop offset="0.723958" stop-color="#00D1FF" stop-opacity="0.9"/>
<stop offset="1" stop-color="#129CFF" stop-opacity="0.7"/>
</linearGradient>
<linearGradient id="paint11_linear_320_11068" x1="931.676" y1="1336.57" x2="1066.26" y2="1507.64" gradientUnits="userSpaceOnUse">
<stop offset="0.0520833" stop-color="#FBFE50"/>
<stop offset="0.723958" stop-color="#00D1FF" stop-opacity="0.9"/>
<stop offset="1" stop-color="#129CFF" stop-opacity="0.7"/>
</linearGradient>
<linearGradient id="paint12_linear_320_11068" x1="940.348" y1="1340.62" x2="1096.71" y2="1441.42" gradientUnits="userSpaceOnUse">
<stop offset="0.0520833" stop-color="#FBFE50"/>
<stop offset="0.723958" stop-color="#00D1FF" stop-opacity="0.9"/>
<stop offset="1" stop-color="#129CFF" stop-opacity="0.7"/>
</linearGradient>
<linearGradient id="paint13_linear_320_11068" x1="948.486" y1="1341.47" x2="1102.9" y2="1379.42" gradientUnits="userSpaceOnUse">
<stop offset="0.0520833" stop-color="#FBFE50"/>
<stop offset="0.723958" stop-color="#00D1FF" stop-opacity="0.9"/>
<stop offset="1" stop-color="#129CFF" stop-opacity="0.7"/>
</linearGradient>
</defs>
</svg>
